<?xml version="1.0" standalone="no"?>
<!DOCTYPE svg PUBLIC "-//W3C//DTD SVG 20010904//EN"
 "http://www.w3.org/TR/2001/REC-SVG-20010904/DTD/svg10.dtd">
<svg version="1.0" xmlns="http://www.w3.org/2000/svg"
 width="512.000000pt" height="512.000000pt" viewBox="0 0 512.000000 512.000000"
 preserveAspectRatio="xMidYMid meet">
<metadata>
Created by potrace 1.11, written by Peter Selinger 2001-2013
</metadata>
<g transform="translate(0.000000,512.000000) scale(0.100000,-0.100000)"
fill="#000000" stroke="none">
<path d="M0 2560 l0 -2560 2560 0 2560 0 0 2560 0 2560 -2560 0 -2560 0 0
-2560z m1557 1105 c116 -249 801 -1723 891 -1915 33 -73 69 -150 127 -275 15
-33 52 -111 81 -174 60 -127 65 -128 -88 4 -58 50 -223 189 -368 310 -144 121
-276 232 -293 247 -26 22 -35 24 -56 16 -35 -13 -1459 -546 -1584 -593 -55
-20 -101 -34 -103 -32 -4 4 280 622 558 1217 22 47 53 112 68 145 42 92 157
339 209 450 26 55 130 279 231 497 102 219 188 394 191 390 4 -4 65 -133 136
-287z m2518 270 c269 -40 527 -165 727 -350 71 -66 76 -75 41 -75 -18 0 -41
12 -63 33 -68 64 -170 139 -183 134 -8 -3 -180 -209 -383 -459 -204 -249 -440
-538 -525 -643 -379 -465 -687 -843 -719 -884 l-35 -43 55 -50 c71 -64 194
-145 295 -196 308 -153 670 -177 1002 -67 167 56 330 149 446 255 53 48 97 64
112 41 7 -12 -120 -122 -212 -183 -157 -105 -360 -185 -543 -214 -142 -23
-388 -15 -519 15 -534 124 -942 546 -1046 1082 -57 297 -12 601 132 880 164
319 451 562 796 673 56 18 138 39 182 45 44 7 87 14 95 16 45 9 259 3 345 -10z"/>
<path d="M1230 3463 c-276 -596 -299 -646 -310 -665 -6 -10 -10 -24 -10 -32 0
-8 93 -92 208 -188 114 -95 332 -278 484 -406 152 -127 281 -232 286 -232 9 0
354 129 360 134 1 2 -21 52 -49 112 -28 60 -126 269 -216 464 -91 195 -180
387 -198 425 -18 39 -77 165 -130 280 -54 116 -113 244 -133 285 -19 41 -49
108 -68 148 -18 39 -34 72 -36 72 -2 0 -86 -179 -188 -397z"/>
<path d="M853 2653 c-14 -32 -46 -101 -70 -153 -225 -480 -544 -1172 -541
-1175 1 -1 224 80 493 181 270 101 626 234 792 296 167 62 303 115 303 118 0
3 -51 48 -112 100 -354 296 -616 516 -713 597 -60 51 -113 93 -118 93 -4 0
-19 -26 -34 -57z"/>
<path d="M2087 1968 c-87 -34 -156 -64 -155 -68 3 -7 53 -50 448 -380 102 -85
187 -158 188 -162 2 -5 7 -8 12 -8 5 0 -15 51 -44 113 -84 178 -136 289 -136
292 0 18 -133 275 -142 274 -7 -1 -84 -28 -171 -61z"/>
<path d="M3655 3885 c-288 -53 -519 -171 -714 -365 -347 -344 -474 -841 -337
-1312 28 -96 90 -236 138 -313 43 -67 149 -205 158 -205 7 0 148 171 725 880
159 195 420 515 579 710 365 447 346 423 346 433 0 14 -198 103 -290 131 -47
14 -125 32 -174 41 -107 18 -332 19 -431 0z"/>
</g>
</svg>
