<?xml version="1.0" encoding="UTF-8"?>
<!DOCTYPE svg  PUBLIC '-//W3C//DTD SVG 1.1//EN'  'http://www.w3.org/Graphics/SVG/1.1/DTD/svg11.dtd'>
<svg enable-background="new 0 0 512 512" version="1.1" viewBox="0 0 512 512" xml:space="preserve" xmlns="http://www.w3.org/2000/svg"><style type="text/css">
<![CDATA[
	.st0{display:inline;}
	.st1{fill:none;stroke:#000000;stroke-width:16;stroke-linecap:round;stroke-linejoin:round;stroke-miterlimit:10;}
	.st2{display:none;}
]]>
</style><g class="st2"><g class="st0"><ellipse class="st1" cx="256" cy="186.54" rx="112" ry="111.54"/><path class="st1" d="M332.606,268.697C381.758,306.051,415,364.671,415,437"/><path class="st1" d="m97 437c0-72.33 33.24-130.95 82.375-168.3"/></g></g><path d="m399.36 336.1c-13.479-26.448-32.057-49.446-55.264-68.493 19.788-21.322 31.9-49.812 31.9-81.07 1e-3 -65.913-53.831-119.54-120-119.54s-120 53.625-120 119.54c0 31.254 12.109 59.741 31.893 81.062-23.206 19.05-41.783 42.05-55.259 68.501-15.682 30.78-23.634 64.727-23.634 100.9 0 4.418 3.582 8 8 8s8-3.582 8-8c0-63.595 26.449-119.59 74.619-158.34 20.765 17.113 47.389 27.41 76.381 27.41 28.989 0 55.609-10.294 76.374-27.403 48.175 38.741 74.626 94.734 74.626 158.33 0 4.418 3.582 8 8 8s8-3.582 8-8c0-36.173-7.953-70.12-23.637-100.9zm-247.36-149.56c0-57.091 46.654-103.54 104-103.54s104 46.447 104 103.54-46.654 103.54-104 103.54-104-46.448-104-103.54z"/></svg>
